<svg xmlns="http://www.w3.org/2000/svg" xmlns:xlink="http://www.w3.org/1999/xlink" version="1.1" x="0px" y="0px" viewBox="0 0 368.767 630.0475" style="enable-background:new 0 0 368.767 504.038;" xml:space="preserve"><g><path d="M197.243,181.818c-21.792,0-39.52,17.729-39.52,39.52c0,21.792,17.729,39.521,39.52,39.521s39.52-17.729,39.52-39.521   C236.763,199.547,219.035,181.818,197.243,181.818z"/><path d="M368.61,424.867c-0.297-3.578-1.531-7.895-3.665-12.827c-10.326-23.871-40.958-60.37-64.267-76.575   c-7.621-5.301-17.059-9.734-28.037-13.203c-5.008-6.714-7.811-12.106-8.786-16.888c-0.723-3.571-1.052-7.481-1.007-11.876   c14.164-5.972,23.497-19.87,23.497-35.429v-5.007c1.048-1.497,2.018-2.983,2.879-4.426c2.296-3.825,4.474-8.513,6.492-13.953   c11.649-0.232,22.97-9.073,27.745-22.143c5.916-16.202,0.084-33.773-13.01-40.041c8.042-12.056,27.172-46.45,17.329-88.866   c-5.078-21.864-18.721-39.104-39.457-49.855c-12.88-6.679-24.646-8.9-28.606-9.498c-6.228-5.768-39.413-33.799-83.396-20.941   c-27.153,7.936-48.705,34.262-67.72,57.489c-13.761,16.81-26.759,32.688-39.747,39.318c-1.406,0.718-2.258,2.195-2.176,3.771   s1.084,2.957,2.558,3.524c6.476,2.492,13.025,3.391,19.579,2.706c-2.898,5.143-5.079,11.175-6.611,18.172   c-15.055,11.915-27.592,32.007-30.726,44.234c-1.982,7.727-1.36,27.683-0.701,48.809c0.614,19.7,1.25,40.07-0.354,48.479   c-1.379,7.252-9.689,24.937-18.487,43.659c-12.25,26.067-26.134,55.613-29.99,74.238c-4.292,20.758-2.07,50.858,12.565,71.313   c8.558,11.961,20.563,19.221,34.713,20.996c2.837,0.356,5.758,0.534,8.764,0.534c14.221,0,30.302-3.984,47.941-11.894   c12.042-5.4,22.032-11.401,28.113-15.348v46.698c0,2.209,1.791,4,4,4h172.12c2.209,0,4-1.791,4-4v-16.849   c0.969,0.03,1.935,0.056,2.887,0.056c8.649,0,16.516-1.244,22.259-3.581C356.447,472.698,370.412,446.58,368.61,424.867z    M315.946,209.795c-3.222,8.82-10.104,15.14-17.453,16.593c3.934-12.994,7.061-29.11,9.001-46.405   C316.573,184.704,320.378,197.657,315.946,209.795z M255.053,83.756c5.106,13.441,12.607,25.058,19.934,36.406   c10.387,16.087,21.116,32.725,25.017,54.594c-2.075,20.916-5.918,40.255-10.842,54.507c-0.908,2.634-1.851,5.071-2.818,7.326   v-63.481c0-21.201-17.249-38.45-38.45-38.45h-7.892l-4.568-11.425C244.965,113.252,251.453,100.223,255.053,83.756z    M152.257,140.143l6.549-16.378c1.703-4.25,5.761-6.997,10.337-6.997h47.55c4.584,0,8.641,2.744,10.336,6.995l6.55,16.38   c0.607,1.519,2.078,2.515,3.714,2.515h10.6c16.79,0,30.45,13.66,30.45,30.45v84.96c0,10.915-5.81,20.782-14.929,26.185   c0.673-6.373,1.829-12.793,2.883-18.634c1.448-8.025,2.816-15.604,2.706-21.654c-0.247-13.444-9.064-21.648-13.162-24.74   c-0.531-15.163-6.755-29.27-17.689-39.915c-11.021-10.719-25.549-16.622-40.909-16.622c-10.458,0-20.554,2.739-29.491,7.95   c-2.029-3.988-5.9-9.062-12.77-10.325c-9.292-1.701-37.602-1.79-51.906,2.546c-3.01,0.909-6.119,2.278-9.291,4.064   c2.866-13.835,15.146-24.266,29.818-24.266h24.94C150.179,142.658,151.65,141.662,152.257,140.143z M247.895,221.403   c-0.007,0.097-0.012,0.193-0.012,0.29c-0.081,13.389-5.347,25.984-14.829,35.467c-9.568,9.568-22.286,14.838-35.811,14.838   c-13.531,0-26.253-5.27-35.821-14.838c-4.955-4.955-8.763-10.755-11.32-17.244c-1.735-4.386-2.841-8.993-3.288-13.71   c-0.153-1.559-0.231-3.196-0.231-4.868c0-5.202,0.785-10.324,2.335-15.229c2.27-7.211,6.222-13.947,11.41-19.461   c0.367-0.386,0.725-0.753,1.094-1.122c2.054-2.054,4.303-3.947,6.684-5.628c8.567-6.025,18.643-9.21,29.137-9.21   c13.265,0,25.813,5.099,35.33,14.355c9.879,9.618,15.32,22.508,15.32,36.294L247.895,221.403z M100.688,462.244   c-19.198,8.333-36.171,11.661-50.466,9.865c-12.049-1.512-21.875-7.472-29.204-17.714C7.789,435.908,5.842,408.409,9.781,389.358   c3.664-17.698,17.334-46.789,29.396-72.456c9.411-20.026,17.539-37.322,19.106-45.565c1.768-9.271,1.148-29.163,0.491-50.224   c-0.612-19.639-1.245-39.946,0.454-46.572c2.513-9.804,13.985-29.424,28.99-40.764c3.491-2.643,6.949-4.647,10.275-5.956   c14.493-5.682,40.17-3.509,50.974-2.246l-3.632,9.083h-22.231c-21.067,0-38.223,17.033-38.44,38.049   c-5.566,4.329-9.218,8.301-9.384,8.483c-1.489,1.631-1.374,4.158,0.256,5.648c0.767,0.701,1.734,1.047,2.698,1.047   c1.083,0,2.164-0.438,2.953-1.299c0.04-0.043,4.034-4.382,9.845-8.672c4.879-3.604,9.542-6.094,13.863-7.398   c13.007-3.943,39.733-3.872,48.147-2.335c4.116,0.757,6.412,4.488,7.519,7.005c-1.856,1.458-3.632,3.021-5.292,4.681   c-0.081,0.081-0.162,0.164-0.242,0.245c-7.735,1.082-44.76,6.456-57.094,11.84c-13.876,6.067-23.743,18.029-24.156,18.536   c-1.396,1.71-1.141,4.226,0.567,5.624c0.743,0.607,1.639,0.903,2.529,0.903c1.158,0,2.307-0.5,3.098-1.466   c0.089-0.108,9.102-10.992,21.164-16.267c8.778-3.832,32.827-7.895,46.498-9.992c-2.509,3.845-4.561,7.979-6.105,12.282   c-8.141,2.138-37.246,10.015-46.795,15.756c-11.237,6.755-17.286,16.475-17.538,16.885c-1.154,1.88-0.566,4.335,1.311,5.493   c0.653,0.403,1.377,0.596,2.094,0.596c1.34,0,2.651-0.674,3.408-1.896c0.052-0.085,5.344-8.51,14.847-14.222   c6.842-4.113,27.578-10.237,40.236-13.681c-0.666,3.554-1.007,7.177-1.007,10.832c0,0.657,0.025,1.302,0.046,1.949   c-10.165,2.736-31.045,8.88-38.745,15.038c-11.64,9.314-12.954,19.796-12.006,26.943c0.586,4.47,3.047,8.009,5.427,11.432   c2.012,2.894,4.092,5.886,5.179,9.58c0.329,1.124,0.552,2.261,0.682,3.471c0.254,2.387-0.718,16.777-15.191,98.67   c-4.426,25.015-8.158,45.229-8.195,45.431c-0.401,2.172,1.035,4.259,3.207,4.66c0.246,0.045,0.49,0.067,0.731,0.067   c1.892,0,3.573-1.348,3.929-3.274c0.032-0.176,2.888-15.643,6.563-36.245C101.155,416.172,104.586,436.957,100.688,462.244z    M138.447,269.164c-0.103,0.242-0.185,0.497-0.24,0.764c-0.694,3.356-1.816,10.919-0.004,18.591h-14.599   c-6.517,0-12.67-2.031-17.89-5.842c-1.496-4.273-3.788-7.591-5.84-10.542c-2.002-2.879-3.73-5.365-4.064-7.911   c-0.985-7.434,2.068-14.045,9.073-19.65c5.285-4.227,21.313-9.582,34.558-13.215c0.521,3.026,1.284,6.002,2.275,8.905   C139.237,244.793,133.845,256.855,138.447,269.164z M94.689,373.638c9.704-55.792,11.984-74.153,12.421-80.823   c5.102,2.435,10.686,3.704,16.493,3.704h17.779c0.066,0.111,0.142,0.213,0.209,0.323c-0.761,4.397-1.949,16.016,4.458,25.25   c1.022,1.47,2.699,3.046,5.108,4.808C134.793,335.72,114.004,350.288,94.689,373.638z M336.296,472.253   c-6.104,2.484-15.759,3.51-25.83,2.737c-15.958-1.209-29.711-6.384-37.731-14.197c-8.699-8.475-24.918-42.512-44.496-93.378   c-3.837-10.002-11.708-18.083-21.595-22.173c-11.642-4.816-33.033-13.999-45.489-21.375c-6.335-3.756-8.08-5.688-8.534-6.34   c-2.795-4.029-3.575-8.911-3.633-12.904c12.473,9.703,34.799,18.958,37.798,20.179c0.494,0.201,1.004,0.296,1.507,0.296   c1.578,0,3.074-0.94,3.706-2.492c0.833-2.046-0.15-4.38-2.196-5.213c-9.31-3.793-34.775-15.443-40.718-23.687   c-0.636-0.887-1.206-1.861-1.687-2.882c-1.862-3.985-2.288-8.45-2.18-12.216c12.948,12.187,39.374,23.624,42.834,25.092   c0.51,0.216,1.039,0.318,1.56,0.318c1.557,0,3.038-0.915,3.684-2.438c0.863-2.034-0.086-4.382-2.12-5.245   c-10.399-4.413-38.658-18.093-44.466-28.256c-0.175-0.309-0.322-0.604-0.444-0.895c-2.568-6.052-1.605-12.376-0.109-17.025   c2.601,4.611,5.806,8.853,9.609,12.656c11.08,11.08,25.811,17.182,41.479,17.182c15.662,0,30.389-6.102,41.468-17.182   c9.086-9.086,14.815-20.645,16.579-33.148c2.77,3.252,5.596,8.104,5.713,14.443c0.097,5.26-1.203,12.462-2.579,20.087   c-1.468,8.134-3.132,17.353-3.508,26.354c-0.255,6.137,0.103,11.505,1.097,16.415c1.273,6.246,4.771,12.963,11.01,21.138   c5,6.552,11.381,13.57,18.137,21c10.707,11.776,22.843,25.124,33.376,40.77c5.678,8.421,10.196,18.254,13.429,29.223   c3.921,13.324,4.497,23.615,4.502,23.718c0.11,2.136,1.876,3.794,3.991,3.794c0.068,0,0.137-0.002,0.206-0.005   c2.207-0.112,3.904-1.991,3.792-4.198c-0.021-0.414-0.516-9.483-3.807-21.942c5.98-1.964,12.51-3.052,17.879-2.97   c1.211,3.14,1.925,5.841,2.107,8.036C362.13,443.51,350.074,466.653,336.296,472.253z"/></g></svg>